<svg width="8" height="7" viewBox="0 0 8 7" fill="none" xmlns="http://www.w3.org/2000/svg">
<path d="M7.61362 5.99291L4.43087 0.983271C4.37053 0.8892 4.28903 0.836426 4.2041 0.836426C4.11917 0.836426 4.03767 0.8892 3.97733 0.983271L0.79458 5.99291C0.751403 6.06534 0.722137 6.15554 0.710168 6.25306C0.698199 6.35058 0.704016 6.45144 0.726947 6.54397C0.751295 6.63515 0.792246 6.71294 0.844637 6.76754C0.897028 6.82215 0.958516 6.85112 1.02135 6.85081H7.38685C7.44969 6.85112 7.51118 6.82215 7.56357 6.76754C7.61596 6.71294 7.65691 6.63515 7.68126 6.54397C7.70419 6.45144 7.71 6.35058 7.69804 6.25306C7.68607 6.15554 7.6568 6.06534 7.61362 5.99291Z" fill="#C7D1F4"/>
</svg>
